<svg xmlns="http://www.w3.org/2000/svg" viewBox="0 0 512 512">
  <defs>
    <linearGradient id="grad1" x1="0%" y1="0%" x2="100%" y2="100%">
      <stop offset="0%" style="stop-color:#0f172a;stop-opacity:1" />
      <stop offset="100%" style="stop-color:#1e293b;stop-opacity:1" />
    </linearGradient>
  </defs>
  <rect width="512" height="512" rx="120" fill="url(#grad1)"/>
  <rect x="0" y="0" width="512" height="512" rx="120" fill="none" stroke="#334155" stroke-width="10" />
  
  <!-- Shield Shape -->
  <path d="M256 80 C150 80 64 160 64 266 C64 380 160 460 256 460 C352 460 448 380 448 266 C448 160 362 80 256 80 Z" fill="none" stroke="#10b981" stroke-width="25" stroke-linecap="round" stroke-linejoin="round"/>
  
  <!-- Checkmark -->
  <path d="M166 266 L230 330 L346 190" fill="none" stroke="#10b981" stroke-width="40" stroke-linecap="round" stroke-linejoin="round" />
  
  <!-- Sparkle -->
  <path d="M380 120 L390 140 L410 150 L390 160 L380 180 L370 160 L350 150 L370 140 Z" fill="#fbbf24" />
</svg>